<mxfile host="app.diagrams.net" modified="2023-08-08T10:09:19.549Z" agent="Mozilla/5.0 (Windows NT 10.0; Win64; x64) AppleWebKit/537.36 (KHTML, like Gecko) Chrome/115.0.0.0 Safari/537.36" etag="UeThXsG9j7Ea3eDSUEFn" version="21.6.6" type="device">
  <diagram name="Page-1" id="suWg1n0FOe7M6CHodCMD">
    <mxGraphModel dx="934" dy="1326" grid="1" gridSize="10" guides="1" tooltips="1" connect="1" arrows="1" fold="1" page="1" pageScale="1" pageWidth="827" pageHeight="1169" math="0" shadow="0">
      <root>
        <mxCell id="0" />
        <mxCell id="1" parent="0" />
        <mxCell id="2" value="Visitor" style="shape=umlLifeline;perimeter=lifelinePerimeter;whiteSpace=wrap;container=1;dropTarget=0;collapsible=0;recursiveResize=0;outlineConnect=0;portConstraint=eastwest;newEdgeStyle={&quot;edgeStyle&quot;:&quot;elbowEdgeStyle&quot;,&quot;elbow&quot;:&quot;vertical&quot;,&quot;curved&quot;:0,&quot;rounded&quot;:0};size=65;" parent="1" vertex="1">
          <mxGeometry width="150" height="560" as="geometry" />
        </mxCell>
        <mxCell id="3" value="Member" style="shape=umlLifeline;perimeter=lifelinePerimeter;whiteSpace=wrap;container=1;dropTarget=0;collapsible=0;recursiveResize=0;outlineConnect=0;portConstraint=eastwest;newEdgeStyle={&quot;edgeStyle&quot;:&quot;elbowEdgeStyle&quot;,&quot;elbow&quot;:&quot;vertical&quot;,&quot;curved&quot;:0,&quot;rounded&quot;:0};size=65;" parent="1" vertex="1">
          <mxGeometry x="200" width="150" height="560" as="geometry" />
        </mxCell>
        <mxCell id="4" value="Librarian" style="shape=umlLifeline;perimeter=lifelinePerimeter;whiteSpace=wrap;container=1;dropTarget=0;collapsible=0;recursiveResize=0;outlineConnect=0;portConstraint=eastwest;newEdgeStyle={&quot;edgeStyle&quot;:&quot;elbowEdgeStyle&quot;,&quot;elbow&quot;:&quot;vertical&quot;,&quot;curved&quot;:0,&quot;rounded&quot;:0};size=65;" parent="1" vertex="1">
          <mxGeometry x="400" width="150" height="560" as="geometry" />
        </mxCell>
        <mxCell id="5" value="Library" style="shape=umlLifeline;perimeter=lifelinePerimeter;whiteSpace=wrap;container=1;dropTarget=0;collapsible=0;recursiveResize=0;outlineConnect=0;portConstraint=eastwest;newEdgeStyle={&quot;edgeStyle&quot;:&quot;elbowEdgeStyle&quot;,&quot;elbow&quot;:&quot;vertical&quot;,&quot;curved&quot;:0,&quot;rounded&quot;:0};size=65;" parent="1" vertex="1">
          <mxGeometry x="600" width="150" height="560" as="geometry" />
        </mxCell>
        <mxCell id="6" value="Enter Library" style="verticalAlign=bottom;endArrow=block;edgeStyle=elbowEdgeStyle;elbow=vertical;curved=0;rounded=0;" parent="1" source="2" target="5" edge="1">
          <mxGeometry relative="1" as="geometry">
            <Array as="points">
              <mxPoint x="385" y="107" />
            </Array>
          </mxGeometry>
        </mxCell>
        <mxCell id="11" value="Request book" style="verticalAlign=bottom;endArrow=block;edgeStyle=elbowEdgeStyle;elbow=vertical;curved=0;rounded=0;" parent="1" edge="1">
          <mxGeometry relative="1" as="geometry">
            <Array as="points">
              <mxPoint x="385.42" y="290" />
            </Array>
            <mxPoint x="275.08666666666653" y="290" as="sourcePoint" />
            <mxPoint x="474.92" y="290" as="targetPoint" />
          </mxGeometry>
        </mxCell>
        <mxCell id="12" value="Check Book Availability" style="verticalAlign=bottom;endArrow=block;edgeStyle=elbowEdgeStyle;elbow=vertical;curved=0;rounded=0;" parent="1" edge="1">
          <mxGeometry relative="1" as="geometry">
            <Array as="points">
              <mxPoint x="560.42" y="310" />
              <mxPoint x="585.42" y="479" />
            </Array>
            <mxPoint x="475.08666666666653" y="310" as="sourcePoint" />
            <mxPoint x="674.92" y="310" as="targetPoint" />
          </mxGeometry>
        </mxCell>
        <mxCell id="13" value="Provide book" style="verticalAlign=bottom;endArrow=block;edgeStyle=elbowEdgeStyle;elbow=vertical;curved=0;rounded=0;dashed=1;dashPattern=2 3;" parent="1" edge="1">
          <mxGeometry relative="1" as="geometry">
            <Array as="points">
              <mxPoint x="560.42" y="350" />
              <mxPoint x="585.42" y="531" />
            </Array>
            <mxPoint x="674.92" y="350" as="sourcePoint" />
            <mxPoint x="475.08666666666653" y="350" as="targetPoint" />
          </mxGeometry>
        </mxCell>
        <mxCell id="14" value="Hand over book" style="verticalAlign=bottom;endArrow=block;edgeStyle=elbowEdgeStyle;elbow=vertical;curved=0;rounded=0;dashed=1;dashPattern=2 3;" parent="1" edge="1">
          <mxGeometry relative="1" as="geometry">
            <Array as="points">
              <mxPoint x="385.42" y="370" />
            </Array>
            <mxPoint x="474.92" y="370" as="sourcePoint" />
            <mxPoint x="275.08666666666653" y="370" as="targetPoint" />
          </mxGeometry>
        </mxCell>
        <mxCell id="16" value="Exit Library" style="verticalAlign=bottom;endArrow=classic;edgeStyle=elbowEdgeStyle;elbow=vertical;curved=0;rounded=0;endFill=1;" parent="1" source="5" target="2" edge="1">
          <mxGeometry relative="1" as="geometry">
            <Array as="points">
              <mxPoint x="570" y="520" />
              <mxPoint x="385" y="730" />
            </Array>
            <mxPoint x="74.5" y="730" as="sourcePoint" />
            <mxPoint x="674.5" y="730" as="targetPoint" />
          </mxGeometry>
        </mxCell>
        <mxCell id="nPLRzEXKr2ImcOM-w6Zm-17" value="Register" style="verticalAlign=bottom;endArrow=block;edgeStyle=elbowEdgeStyle;elbow=vertical;curved=0;rounded=0;" edge="1" parent="1" source="2" target="4">
          <mxGeometry relative="1" as="geometry">
            <Array as="points">
              <mxPoint x="180" y="170" />
            </Array>
            <mxPoint x="70" y="170" as="sourcePoint" />
            <mxPoint x="270" y="170" as="targetPoint" />
          </mxGeometry>
        </mxCell>
        <mxCell id="nPLRzEXKr2ImcOM-w6Zm-18" value="Add New Member" style="verticalAlign=bottom;endArrow=block;edgeStyle=elbowEdgeStyle;elbow=vertical;curved=0;rounded=0;dashed=1;dashPattern=2 3;" edge="1" parent="1">
          <mxGeometry x="0.0006" relative="1" as="geometry">
            <Array as="points" />
            <mxPoint x="474.81034482758616" y="190.2855172413793" as="sourcePoint" />
            <mxPoint x="674.5" y="190.2855172413793" as="targetPoint" />
            <mxPoint as="offset" />
          </mxGeometry>
        </mxCell>
        <mxCell id="nPLRzEXKr2ImcOM-w6Zm-19" value="Add New Book" style="verticalAlign=bottom;endArrow=block;edgeStyle=elbowEdgeStyle;elbow=vertical;curved=0;rounded=0;" edge="1" parent="1" source="4" target="5">
          <mxGeometry relative="1" as="geometry">
            <Array as="points">
              <mxPoint x="590.33" y="410" />
            </Array>
            <mxPoint x="479.99666666666656" y="410" as="sourcePoint" />
            <mxPoint x="679.83" y="410" as="targetPoint" />
          </mxGeometry>
        </mxCell>
        <mxCell id="nPLRzEXKr2ImcOM-w6Zm-20" value="Update Book" style="verticalAlign=bottom;endArrow=block;edgeStyle=elbowEdgeStyle;elbow=vertical;curved=0;rounded=0;" edge="1" parent="1" source="4" target="5">
          <mxGeometry relative="1" as="geometry">
            <Array as="points">
              <mxPoint x="595.33" y="440" />
            </Array>
            <mxPoint x="480" y="440" as="sourcePoint" />
            <mxPoint x="680" y="440" as="targetPoint" />
          </mxGeometry>
        </mxCell>
        <mxCell id="nPLRzEXKr2ImcOM-w6Zm-21" value="Remove Book" style="verticalAlign=bottom;endArrow=block;edgeStyle=elbowEdgeStyle;elbow=vertical;curved=0;rounded=0;" edge="1" parent="1">
          <mxGeometry relative="1" as="geometry">
            <Array as="points">
              <mxPoint x="580" y="470" />
            </Array>
            <mxPoint x="474.92857142857144" y="470" as="sourcePoint" />
            <mxPoint x="674.5" y="470" as="targetPoint" />
          </mxGeometry>
        </mxCell>
      </root>
    </mxGraphModel>
  </diagram>
</mxfile>
